<?xml version="1.0" encoding="UTF-8"?>
<svg id="Layer_1" data-name="Layer 1" xmlns="http://www.w3.org/2000/svg" width="3000" height="3000" viewBox="0 0 3000 3000">
  <defs>
    <style>
      .cls-1 {
        fill: #ef6b24;
      }

      .cls-2 {
        fill: #efefef;
      }
    </style>
  </defs>
  <path class="cls-2" d="M2127.6835,2004.3691l-1.5018,2.2838c-4.0291,5.505-8.1203,10.8961-12.2219,16.2717,0,14.2494-.0621,28.4833-.1968,42.6654-.7147,69.8954-2.9001,140.0704-4.8163,201.9852l-.0932,2.8509c-1.4293,46.1507-2.7965,50.0736-3.6562,93.0859l434.8101,6.4864c.8182-40.2365,2.1337-42.3365,3.5009-86.5529l.0725-2.3304c8.2757-265.6065,17.5871-564.8129-55.9308-838.4206-92.234,114.1635-285.1538,433.7717-359.9664,561.6746Z"/>
  <path class="cls-1" d="M2461.3728,1269.5085c1.5536-1.3698,3.128-2.7111,4.6195-3.8944l3.6148-2.4055c15.5467-8.5916,31.1555-13.9231,46.4018-15.8445,12.5637-1.5873,25.7696-.6059,37.8569,1.4397l126.1343-417.2825c-74.2326-19.2806-147.5951-24.5241-218.4201-15.5907h-.0104c-69.3852,8.7547-135.7047,30.2725-197.6014,64.0718l-37.5151,22.5251c-34.4803,23.5557-185.3484,134.8605-304.6674,353.335-2.6205,4.7826-5.1684,9.3373-7.6749,13.7704-21.3055,38.1546-40.1355,74.2637-59.1416,110.9605l-10.4093,20.0859c-134.8553,259.5033-290.6744,426.3894-476.3749,510.2131-125.5957,56.6921-271.3886,59.1028-389.9515,6.4631-70.9389-31.4973-164.5504-97.203-207.7-231.3696-36.9972-115.0413-15.7746-253.1075,54.0664-351.7399,110.2562-155.7284,340.6703-262.6106,587.004-272.2949,147.9266-5.8132,283.9212,22.6805,393.0173,81.3275,82.4876-105.6729,218.824-255.3629,350.3546-288.476-185.5038-148.5195-431.8789-228.4669-704.7176-228.4669-18.4675,0-37.0283.3651-55.7236,1.1005-387.9421,15.2489-733.6773,185.5374-924.8466,455.5252-148.403,209.6006-191.7494,491.6808-113.1252,736.1605,72.0989,224.1841,230.207,400.2184,445.2194,495.6762,113.2806,50.2911,234.6814,75.7888,360.8261,75.7862,130.733,0,263.6826-28.8199,384.4827-83.3446,191.4179-86.4053,354.3215-220.4476,498.0222-409.794l.4454-.5904c10.2643-13.5399,19.7933-27.7194,28.3175-42.1527,70.5557-119.4174,307.0186-514.5451,387.4968-585.194Z"/>
</svg>